<svg width="39" height="68" viewBox="0 0 39 68" fill="none" xmlns="http://www.w3.org/2000/svg">
<path d="M26.5159 34.035L1.41888 59.5C0.475066 60.4471 0.0477699 61.4811 0.00315309 62.9C-0.0414638 64.3189 0.385832 65.5428 1.41888 66.5794C2.3627 67.5265 3.56392 68 5.02255 68C6.48118 68 7.6824 67.5265 8.62622 66.5794L37.4556 37.651C38.4852 36.6179 39 35.4125 39 34.035C39 32.6574 38.4852 31.4521 37.4556 30.4189L8.62622 1.49053C7.6824 0.543469 6.50177 0.0475533 5.08433 0.0027832C3.66688 -0.0419869 2.44507 0.453929 1.41888 1.49053C0.475066 2.43759 0.00315309 3.64294 0.00315309 5.10658C0.00315309 6.57022 0.475066 7.77557 1.41888 8.72263L26.5159 34.035Z" fill="black"/>
</svg>
