<svg width="39" height="68" viewBox="0 0 39 68" fill="none" xmlns="http://www.w3.org/2000/svg">
<path d="M12.4384 34.035L37.4435 59.5C38.3838 60.4471 38.8095 61.4811 38.854 62.9C38.8985 64.3189 38.4727 65.5428 37.4435 66.5794C36.5031 67.5265 35.3063 68 33.853 68C32.3997 68 31.2029 67.5265 30.2625 66.5794L1.53877 37.651C0.512923 36.6179 0 35.4125 0 34.035C0 32.6574 0.512923 31.4521 1.53877 30.4189L30.2625 1.49053C31.2029 0.543469 32.3792 0.0475533 33.7914 0.0027832C35.2037 -0.0419869 36.421 0.453929 37.4435 1.49053C38.3838 2.43759 38.854 3.64294 38.854 5.10658C38.854 6.57022 38.3838 7.77557 37.4435 8.72263L12.4384 34.035Z" fill="black"/>
</svg>
